<svg width="16" height="16" viewBox="0 0 16 16" fill="none" xmlns="http://www.w3.org/2000/svg">
<path fill-rule="evenodd" clip-rule="evenodd" d="M7.99988 1.75C4.54782 1.75 1.74988 4.54794 1.74988 8C1.74988 11.4521 4.54782 14.25 7.99988 14.25C11.4519 14.25 14.2499 11.4521 14.2499 8C14.2499 4.54794 11.4519 1.75 7.99988 1.75ZM0.249878 8C0.249878 3.71952 3.71939 0.25 7.99988 0.25C12.2804 0.25 15.7499 3.71952 15.7499 8C15.7499 12.2805 12.2804 15.75 7.99988 15.75C3.71939 15.75 0.249878 12.2805 0.249878 8ZM7.99988 3.25C8.41409 3.25 8.74988 3.58579 8.74988 4V7.59861L11.4159 9.37596C11.7605 9.60573 11.8537 10.0714 11.6239 10.416C11.3942 10.7607 10.9285 10.8538 10.5839 10.624L7.58385 8.62404C7.3752 8.48494 7.24988 8.25076 7.24988 8V4C7.24988 3.58579 7.58566 3.25 7.99988 3.25Z" fill="#737C89" fill-opacity="0.6"/>
</svg>
