<svg width="16" height="16" viewBox="0 0 16 16" fill="none" xmlns="http://www.w3.org/2000/svg">
<path fill-rule="evenodd" clip-rule="evenodd" d="M12.5 8C12.5 10.4853 10.4853 12.5 8 12.5C7.02813 12.5 6.12821 12.1919 5.3926 11.6681L11.6681 5.3926C12.1919 6.12821 12.5 7.02813 12.5 8ZM12.7399 4.32077C13.5297 5.33678 14 6.61347 14 8C14 11.3137 11.3137 14 8 14C6.61347 14 5.33678 13.5297 4.32077 12.7399L3.53033 13.5303C3.23744 13.8232 2.76256 13.8232 2.46967 13.5303C2.17678 13.2374 2.17678 12.7626 2.46967 12.4697L3.26011 11.6792C2.47031 10.6632 2 9.38653 2 8C2 4.68629 4.68629 2 8 2C9.38653 2 10.6632 2.47031 11.6792 3.26011L12.4697 2.46967C12.7626 2.17678 13.2374 2.17678 13.5303 2.46967C13.8232 2.76256 13.8232 3.23744 13.5303 3.53033L12.7399 4.32077ZM4.33194 10.6074L10.6074 4.33194C9.87179 3.80809 8.97187 3.5 8 3.5C5.51472 3.5 3.5 5.51472 3.5 8C3.5 8.97187 3.80809 9.87179 4.33194 10.6074Z" fill="currentColor"/>
</svg>
