<svg width="240" height="48" viewBox="0 0 240 48" fill="none" xmlns="http://www.w3.org/2000/svg">
<path d="M70.137 33C75.1788 33 78.0516 29.8489 78.0598 24.578C78.0598 19.3643 75.2279 16.2378 70.4317 16.2378H65.2262V33H70.137ZM66.7568 31.625V17.6128H70.3416C74.4094 17.6128 76.5702 20.2401 76.5784 24.578C76.5784 28.9568 74.3685 31.625 70.047 31.625H66.7568ZM84.9779 33.2865C87.0731 33.2865 88.35 32.1242 88.8738 31.0111H88.9638V33H90.4207V24.4634C90.4207 21.0913 87.8834 20.2565 85.96 20.2565C84.0366 20.2565 82.0559 21.0177 81.2047 23.072L82.5879 23.5713C83.0463 22.4909 84.184 21.566 86.001 21.566C87.908 21.566 88.9638 22.6137 88.9638 24.3324V24.6271C88.9638 25.5765 87.7852 25.5929 85.6736 25.8548C82.8335 26.2067 80.8446 27.0006 80.8446 29.4888C80.8446 31.9114 82.6943 33.2865 84.9779 33.2865ZM85.1743 31.9524C83.5292 31.9524 82.3015 31.0766 82.3015 29.5543C82.3015 28.0319 83.5456 27.3935 85.6736 27.1316C86.7048 27.0088 88.5382 26.7797 88.9638 26.3622V28.1792C88.9638 30.2418 87.4987 31.9524 85.1743 31.9524ZM99.2478 20.4284H96.5878V17.4164H95.1228V20.4284H93.2485V21.697H95.1228V30.0617C95.1228 32.1161 96.7433 33.1882 98.3557 33.1882C98.9614 33.1882 99.3706 33.0737 99.6489 32.9673L99.3379 31.6495C99.1332 31.7068 98.8713 31.7641 98.4867 31.7641C97.4963 31.7641 96.5878 31.2976 96.5878 29.7179V21.697H99.2478V20.4284ZM106.068 33.2865C108.163 33.2865 109.44 32.1242 109.964 31.0111H110.054V33H111.511V24.4634C111.511 21.0913 108.973 20.2565 107.05 20.2565C105.126 20.2565 103.146 21.0177 102.295 23.072L103.678 23.5713C104.136 22.4909 105.274 21.566 107.091 21.566C108.998 21.566 110.054 22.6137 110.054 24.3324V24.6271C110.054 25.5765 108.875 25.5929 106.763 25.8548C103.923 26.2067 101.934 27.0006 101.934 29.4888C101.934 31.9114 103.784 33.2865 106.068 33.2865ZM106.264 31.9524C104.619 31.9524 103.391 31.0766 103.391 29.5543C103.391 28.0319 104.635 27.3935 106.763 27.1316C107.795 27.0088 109.628 26.7797 110.054 26.3622V28.1792C110.054 30.2418 108.589 31.9524 106.264 31.9524ZM115.689 16.2378V33H117.129V19.4707H117.26L122.916 33H124.307L129.963 19.4707H130.094V33H131.534V16.2378H129.766L123.685 30.8392H123.538L117.457 16.2378H115.689ZM139.199 33.2865C141.294 33.2865 142.571 32.1242 143.095 31.0111H143.185V33H144.642V24.4634C144.642 21.0913 142.105 20.2565 140.181 20.2565C138.258 20.2565 136.277 21.0177 135.426 23.072L136.809 23.5713C137.268 22.4909 138.405 21.566 140.222 21.566C142.129 21.566 143.185 22.6137 143.185 24.3324V24.6271C143.185 25.5765 142.007 25.5929 139.895 25.8548C137.055 26.2067 135.066 27.0006 135.066 29.4888C135.066 31.9114 136.916 33.2865 139.199 33.2865ZM139.396 31.9524C137.751 31.9524 136.523 31.0766 136.523 29.5543C136.523 28.0319 137.767 27.3935 139.895 27.1316C140.926 27.0088 142.76 26.7797 143.185 26.3622V28.1792C143.185 30.2418 141.72 31.9524 139.396 31.9524ZM148.517 33H149.974V24.8808C149.974 23.0147 151.407 21.6642 153.371 21.6642C153.756 21.6642 154.116 21.7297 154.247 21.7461V20.2647C154.05 20.2565 153.715 20.2401 153.477 20.2401C151.898 20.2401 150.547 21.0913 150.04 22.3599H149.933V20.4284H148.517V33ZM156.733 33H158.19V28.1301L159.638 26.7715L164.566 33H166.432L160.727 25.8139L166.104 20.4284H164.263L158.37 26.3459H158.19V16.2378H156.733V33ZM173.407 33.2619C175.928 33.2619 177.622 31.8951 178.195 30.3154L176.812 29.8653C176.329 30.9948 175.191 31.9278 173.407 31.9278C170.837 31.9278 169.208 30.0535 169.143 27.148H178.506V26.4277C178.506 22.229 175.912 20.2565 173.186 20.2565C169.929 20.2565 167.678 22.982 167.678 26.7878C167.678 30.6019 169.888 33.2619 173.407 33.2619ZM169.151 25.863C169.307 23.5222 170.886 21.5824 173.186 21.5824C175.437 21.5824 177.016 23.4403 177.016 25.863H169.151ZM186.668 20.4284H184.008V17.4164H182.543V20.4284H180.669V21.697H182.543V30.0617C182.543 32.1161 184.164 33.1882 185.776 33.1882C186.382 33.1882 186.791 33.0737 187.069 32.9673L186.758 31.6495C186.554 31.7068 186.292 31.7641 185.907 31.7641C184.917 31.7641 184.008 31.2976 184.008 29.7179V21.697H186.668V20.4284Z" fill="#0A2973"/>
<g clip-path="url(#clip0)">
<path d="M3.98643 11.9986L2.98806 14.7518H16.8223L17.8207 11.9986H3.98643ZM2.48918 16.1274L1.49081 18.88H15.325L16.3234 16.1274H2.48918ZM0.994312 20.2562L-0.00405884 23.0088H13.8302L14.8279 20.2562H0.994312Z" fill="#009FDF"/>
<path d="M29.4068 24.0581V24.1165C30.0391 24.3497 30.6432 24.7586 30.9597 25.0207C31.9371 25.8378 32.369 26.9171 32.369 28.3174C32.369 30.6232 31.1613 32.2857 29.1771 32.8112C28.5729 32.9861 27.9406 33.0445 26.7616 33.0445H20.7528V16.1805H26.0725C27.1654 16.1805 27.9125 16.2388 28.5735 16.4132C30.5003 16.9387 31.7654 18.2807 31.7654 20.4103C31.7654 21.5485 31.3628 22.5117 30.7018 23.1532C30.4141 23.4449 30.0115 23.7954 29.408 24.0575L29.4068 24.0581ZM24.0877 25.8378V30.2727H26.3883C27.078 30.2727 27.7109 30.2144 28.1709 29.7766C28.6309 29.3389 28.8319 28.7846 28.8319 28.0553C28.8319 27.5015 28.6878 26.976 28.4006 26.5966C27.9119 25.9839 27.3077 25.8378 26.2729 25.8378H24.0871H24.0877ZM24.0584 22.92H25.9277C26.5026 22.92 26.7903 22.92 27.0774 22.8328C27.8545 22.5989 28.3432 21.8996 28.3432 20.9364C28.3432 19.7989 27.8258 19.3022 27.0774 19.0695C26.761 18.9818 26.4452 18.9529 25.8123 18.9529H24.0584V22.9206V22.92ZM37.3716 33.0451V19.0106H32.57V16.1811H45.9125L44.9638 19.0106H40.7077V33.0451H37.3722H37.3716ZM46.9473 33.0451V16.1811H57.7595L56.8108 19.0106H50.2547V22.7456H52.9292C55.0857 22.7456 56.2072 23.2711 56.9837 23.9415C57.5879 24.467 58.6227 25.6334 58.6227 27.9392C58.6227 30.215 57.5591 31.4692 56.6673 32.1113C55.6324 32.84 54.5395 33.0451 52.325 33.0451H46.9479H46.9473ZM50.2541 30.2144H52.7557C53.7044 30.2144 54.2793 29.9811 54.6819 29.4556C54.8829 29.1934 55.1706 28.7257 55.1706 27.8508C55.1706 26.976 54.8829 26.3627 54.308 25.925C53.9635 25.6629 53.5029 25.5174 52.7264 25.5174H50.2535V30.2144H50.2541Z" fill="#0A2973"/>
</g>
<defs>
<clipPath id="clip0">
<rect width="58.6221" height="21.0438" fill="white" transform="translate(0 12)"/>
</clipPath>
</defs>
</svg>
