<svg width="24" height="24" viewBox="0 0 24 24" fill="none" xmlns="http://www.w3.org/2000/svg">
<path fill-rule="evenodd" clip-rule="evenodd" d="M11.9991 4.249L9.86559 8.54097L9.8638 8.54457C9.60036 9.06922 9.10185 9.43045 8.52648 9.52153L8.51309 9.52365L3.74926 10.2116L7.20327 13.533L7.20754 13.5372C7.63076 13.949 7.82322 14.5451 7.72108 15.1267L6.89469 19.8353L11.1771 17.5946C11.7025 17.3128 12.3323 17.3129 12.8576 17.5949L17.113 19.8258L16.2904 15.1389C16.1798 14.5507 16.375 13.9477 16.8087 13.5354L20.2437 10.2137L15.4855 9.52632C14.8986 9.44054 14.3951 9.07114 14.1343 8.5442L14.1334 8.54246L11.9991 4.249ZM12.7991 2.1903C12.3736 1.97711 11.8797 1.9413 11.4273 2.0917C10.9703 2.24296 10.5978 2.57213 10.388 2.99712L8.11996 7.55959L3.04119 8.2931C3.03055 8.29464 3.01993 8.29635 3.00935 8.29822C2.65355 8.36138 2.32592 8.52361 2.06091 8.76357C2.04867 8.77466 2.0367 8.78605 2.02502 8.79773C2.01143 8.81132 1.9995 8.82404 1.98925 8.8354C1.32298 9.53799 1.3387 10.6461 2.02733 11.3302L2.03899 11.3416L5.73161 14.8925L4.85119 19.909L4.84927 19.9202C4.78634 20.3046 4.84933 20.6999 5.03209 21.0473L5.0433 21.0681C5.51514 21.916 6.57624 22.2466 7.44775 21.803L12.017 19.4124L16.5418 21.7845L16.5634 21.7955C16.9065 21.9649 17.2939 22.0255 17.6738 21.9673L17.6824 21.9659C18.6484 21.8091 19.3063 20.9051 19.1633 19.9402C19.162 19.9314 19.1606 19.9227 19.1591 19.914L18.2784 14.8963L21.9483 11.3475C22.6074 10.7247 22.6901 9.70388 22.1363 8.98281C21.8488 8.60839 21.4255 8.36011 20.9538 8.29548L15.8798 7.56251L13.6096 2.9957L13.6015 2.97984C13.4247 2.6394 13.144 2.36217 12.7991 2.1903ZM15.9264 7.65623L15.9268 7.6572L15.9264 7.65623Z" fill="currentColor"/>
</svg>
