<svg width="16" height="16" viewBox="0 0 16 16" fill="none" xmlns="http://www.w3.org/2000/svg">
<path fill-rule="evenodd" clip-rule="evenodd" d="M6.75 2C6.75 1.58579 6.41421 1.25 6 1.25C5.58579 1.25 5.25 1.58579 5.25 2H5C3.34315 2 2 3.34315 2 5V11C2 12.6569 3.34315 14 5 14H11C12.6569 14 14 12.6569 14 11V5C14 3.34315 12.6569 2 11 2H10.75C10.75 1.58579 10.4142 1.25 10 1.25C9.58579 1.25 9.25 1.58579 9.25 2H6.75ZM9.25 3.5H6.75V4C6.75 4.41421 6.41421 4.75 6 4.75C5.58579 4.75 5.25 4.41421 5.25 4V3.5H5C4.17157 3.5 3.5 4.17157 3.5 5V6.25H12.5V5C12.5 4.17157 11.8284 3.5 11 3.5H10.75V4C10.75 4.41421 10.4142 4.75 10 4.75C9.58579 4.75 9.25 4.41421 9.25 4V3.5ZM3.5 7.75H12.5V11C12.5 11.8284 11.8284 12.5 11 12.5H5C4.17157 12.5 3.5 11.8284 3.5 11V7.75Z" fill="currentColor"/>
</svg>
