<svg width="24" height="24" viewBox="0 0 24 24" fill="none" xmlns="http://www.w3.org/2000/svg">
<path fill-rule="evenodd" clip-rule="evenodd" d="M2 8C2 5.79086 3.79086 4 6 4H18C20.2091 4 22 5.79086 22 8V16C22 18.2091 20.2091 20 18 20H6C3.79086 20 2 18.2091 2 16V8ZM18 6C18.4423 6 18.851 6.14356 19.1822 6.38663L13.315 11.5137C12.5484 12.1625 11.5015 12.1621 10.7353 11.5125L4.81856 6.38608C5.14959 6.14335 5.55805 6 6 6H18ZM4 8.32314V16C4 17.1046 4.89543 18 6 18H18C19.1046 18 20 17.1046 20 16V8.32802L14.6158 13.0331C13.1006 14.3224 10.9512 14.3223 9.43608 13.033L9.42929 13.0272L4 8.32314Z" fill="#737C89" fill-opacity="0.8"/>
</svg>
