<svg width="16" height="16" viewBox="0 0 16 16" fill="none" xmlns="http://www.w3.org/2000/svg">
<path fill-rule="evenodd" clip-rule="evenodd" d="M0.25 2.06228C0.25 1.0831 1.02468 0.25 2.02934 0.25H13.9701C13.9701 0.25 13.9707 0.25 13.9707 1C13.9707 1.75 13.9705 1.75 13.9705 1.75H2.02934C1.89689 1.75 1.75 1.86706 1.75 2.06228V3.25281C1.75 3.34034 1.78225 3.4192 1.83309 3.47515L6.40161 8.51253C6.69359 8.83447 6.85532 9.25354 6.85532 9.68817V13.4241C6.85532 13.6074 7.04598 13.7283 7.21179 13.6503L8.5552 13.018C8.64281 12.9767 8.69873 12.8886 8.69873 12.7918V9.71234C8.69873 9.25248 8.87975 8.81109 9.20262 8.48364L14.1575 3.45861L14.159 3.45706C14.2136 3.40195 14.25 3.31989 14.25 3.22619V2.06228C14.25 1.86706 14.103 1.75 13.9705 1.75L13.9707 1L13.9701 0.25C14.9748 0.25 15.75 1.0831 15.75 2.06228V3.22619C15.75 3.70476 15.5649 4.16918 15.2249 4.51244L15.224 4.51333L10.2707 9.53681C10.2246 9.58359 10.1987 9.64665 10.1987 9.71234V12.7918C10.1987 13.4696 9.80729 14.0865 9.19399 14.3752L7.85058 15.0075C6.68989 15.5538 5.35532 14.7069 5.35532 13.4241V9.68817C5.35532 9.62608 5.33222 9.56621 5.29051 9.52022L0.722978 4.48394C0.416289 4.14631 0.25 3.70557 0.25 3.25281V2.06228Z" fill="currentColor"/>
</svg>
