<svg width="16" height="16" viewBox="0 0 16 16" fill="none" xmlns="http://www.w3.org/2000/svg">
<path fill-rule="evenodd" clip-rule="evenodd" d="M8.35602 2.60319C8.33537 2.59207 8.31422 2.58192 8.29266 2.57279C8.09834 2.49032 7.888 2.49615 7.70714 2.57279C7.6856 2.58191 7.66448 2.59204 7.64386 2.60315C7.57831 2.63841 7.5199 2.68233 7.46943 2.73282C7.41938 2.78285 7.37579 2.84068 7.34068 2.90553C7.33082 2.92374 7.32172 2.94233 7.3134 2.96126L3.10414 12.4321C2.93591 12.8106 3.10638 13.2538 3.48489 13.4221C3.8634 13.5903 4.30662 13.4198 4.47485 13.0413L5.44645 10.8552L10.5533 10.8552L11.525 13.0413C11.6932 13.4198 12.1364 13.5903 12.5149 13.4221C12.8934 13.2538 13.0639 12.8106 12.8957 12.4321L8.68639 2.96122C8.67807 2.94231 8.66898 2.92373 8.65912 2.90554C8.62401 2.84068 8.58043 2.78285 8.53038 2.73282C8.47992 2.68235 8.42154 2.63845 8.35602 2.60319ZM9.88668 9.35521L7.9999 5.10995L6.11311 9.35523L9.88668 9.35521Z" fill="currentColor"/>
</svg>
