<svg width="16" height="16" viewBox="0 0 16 16" fill="none" xmlns="http://www.w3.org/2000/svg">
<path fill-rule="evenodd" clip-rule="evenodd" d="M5.96939 0.25C5.05083 0.25 4.2794 0.892699 4.05586 1.76908C4.05207 1.78395 4.04874 1.79893 4.04586 1.814L3.81278 3.03669L3.81276 3.0368L3.81273 3.03698C3.73662 3.43476 3.44084 3.699 3.11524 3.75H1.5C1.08579 3.75 0.75 4.08579 0.75 4.5C0.75 4.91421 1.08579 5.25 1.5 5.25H2.26511L2.26849 5.30022C2.27934 5.46106 2.2951 5.69348 2.3147 5.97996C2.35389 6.55288 2.40849 7.34215 2.47008 8.20749C2.59305 9.93537 2.74453 11.9754 2.85704 13.1989L3.60212 13.1305L2.85705 13.199C2.91851 13.869 3.12799 14.4881 3.53517 14.9556C3.95645 15.4392 4.53723 15.6987 5.19785 15.7152C7.04897 15.7622 8.90146 15.7596 10.75 15.7195L10.7502 15.7195C11.4185 15.7048 12.0122 15.456 12.4464 14.9701C12.8666 14.5 13.0797 13.8735 13.1422 13.1931C13.2541 11.9801 13.4057 9.94157 13.529 8.21259C13.5908 7.34668 13.6456 6.55616 13.685 5.98215C13.7047 5.69512 13.7205 5.46219 13.7314 5.30097L13.7349 5.25H14.5C14.9142 5.25 15.25 4.91421 15.25 4.5C15.25 4.08579 14.9142 3.75 14.5 3.75H12.8848C12.5591 3.69899 12.2632 3.43463 12.1872 3.03669L11.9541 1.814C11.9513 1.79893 11.9479 1.78395 11.9441 1.76908C11.7206 0.892699 10.9492 0.25 10.0306 0.25H5.96939ZM10.8381 3.75C10.7842 3.61184 10.7424 3.46741 10.7139 3.31815L10.7138 3.31787L10.4858 2.12194C10.4167 1.88125 10.2185 1.75 10.0306 1.75H5.96939C5.78155 1.75 5.58333 1.88125 5.51417 2.12194L5.28619 3.31787L5.28614 3.31815C5.25762 3.46741 5.21577 3.61184 5.16189 3.75H10.8381ZM5.19785 15.7152L5.2169 14.9654L5.19841 15.7152L5.19785 15.7152ZM12.1885 5.8795C12.2062 5.62159 12.2208 5.40748 12.2314 5.25H3.76851C3.77913 5.40706 3.79361 5.62049 3.8112 5.87757C3.85033 6.44954 3.90483 7.23739 3.96629 8.101C4.08941 9.83091 4.23988 11.856 4.35075 13.0617L4.35077 13.0619C4.39292 13.5216 4.52521 13.8084 4.66622 13.9703C4.79306 14.1159 4.96677 14.209 5.23538 14.2156L5.23594 14.2157C7.06033 14.262 8.88898 14.2595 10.7173 14.2198C11.0152 14.2133 11.1994 14.1145 11.328 13.9706C11.4707 13.8109 11.6054 13.5255 11.6485 13.0558L11.6486 13.0556C11.7587 11.8605 11.9094 9.83701 12.0328 8.10587C12.0945 7.24167 12.1492 6.45257 12.1885 5.8795Z" fill="#737C89" fill-opacity="0.8"/>
</svg>
