<svg width="16" height="16" viewBox="0 0 16 16" fill="none" xmlns="http://www.w3.org/2000/svg">
<path fill-rule="evenodd" clip-rule="evenodd" d="M7 0.25C3.27208 0.25 0.25 3.27208 0.25 7C0.25 10.7279 3.27208 13.75 7 13.75C8.62566 13.75 10.1171 13.1753 11.2822 12.218C11.3168 12.3323 11.3793 12.44 11.4697 12.5303L14.4697 15.5303C14.7626 15.8232 15.2374 15.8232 15.5303 15.5303C15.8232 15.2374 15.8232 14.7626 15.5303 14.4697L12.5303 11.4697C12.44 11.3793 12.3323 11.3168 12.218 11.2822C13.1753 10.1171 13.75 8.62566 13.75 7C13.75 3.27208 10.7279 0.25 7 0.25ZM1.75 7C1.75 4.10051 4.10051 1.75 7 1.75C9.8995 1.75 12.25 4.10051 12.25 7C12.25 9.8995 9.8995 12.25 7 12.25C4.10051 12.25 1.75 9.8995 1.75 7Z" fill="#737C89" fill-opacity="0.6"/>
</svg>
