<svg width="16" height="16" viewBox="0 0 16 16" fill="none" xmlns="http://www.w3.org/2000/svg">
<path fill-rule="evenodd" clip-rule="evenodd" d="M7.43293 0.25C6.35675 0.25 5.48434 1.12241 5.48434 2.19858C5.48434 2.36931 5.36741 2.58861 5.10002 2.73382C5.02016 2.7772 4.9414 2.8223 4.86378 2.86909C4.59736 3.0297 4.34231 3.02227 4.18821 2.9341C3.24961 2.39706 2.05354 2.71753 1.50919 3.65191L0.961313 4.59236C0.415988 5.52842 0.737809 6.72951 1.67809 7.26752C1.82726 7.35286 1.9605 7.565 1.95401 7.87197C1.95311 7.91455 1.95266 7.95723 1.95266 8C1.95266 8.04278 1.95311 8.08547 1.95401 8.12807C1.9605 8.43503 1.82727 8.64715 1.67811 8.73249C0.737835 9.27049 0.416015 10.4716 0.961334 11.4076L1.50923 12.3481C2.05358 13.2825 3.24964 13.6029 4.18823 13.0659C4.34233 12.9777 4.59737 12.9703 4.86379 13.1309C4.9414 13.1777 5.02016 13.2228 5.10002 13.2662C5.36741 13.4114 5.48434 13.6307 5.48434 13.8014C5.48434 14.8776 6.35675 15.75 7.43293 15.75H8.56745C9.64362 15.75 10.516 14.8776 10.516 13.8014C10.516 13.6307 10.633 13.4114 10.9004 13.2662C10.9802 13.2228 11.059 13.1777 11.1366 13.1309C11.403 12.9703 11.658 12.9777 11.8121 13.0659C12.7507 13.603 13.9468 13.2825 14.4911 12.3481L15.039 11.4076C15.5844 10.4716 15.2625 9.2705 14.3223 8.7325C14.1731 8.64716 14.0399 8.43504 14.0464 8.12807C14.0473 8.08547 14.0477 8.04278 14.0477 8C14.0477 7.95723 14.0473 7.91455 14.0464 7.87196C14.0399 7.56499 14.1731 7.35286 14.3223 7.26751C15.2626 6.72951 15.5844 5.52841 15.0391 4.59235L14.4912 3.65191C13.9468 2.71753 12.7508 2.39705 11.8122 2.93409C11.6581 3.02227 11.403 3.0297 11.1366 2.86908C11.059 2.8223 10.9802 2.7772 10.9004 2.73382C10.633 2.58861 10.516 2.36931 10.516 2.19859C10.516 1.12241 9.64362 0.25 8.56745 0.25H7.43293ZM6.98434 2.19858C6.98434 1.95084 7.18518 1.75 7.43293 1.75H8.56745C8.81519 1.75 9.01603 1.95084 9.01603 2.19859C9.01603 3.04631 9.55688 3.71113 10.1845 4.05197C10.2445 4.08459 10.3038 4.11852 10.3622 4.15372C10.9745 4.52282 11.8206 4.65743 12.5571 4.23604C12.7806 4.10815 13.0655 4.18447 13.1951 4.40699L13.743 5.34743C13.869 5.56372 13.7946 5.84125 13.5773 5.96556C12.8398 6.38757 12.5316 7.18926 12.5467 7.90368C12.5474 7.93569 12.5477 7.9678 12.5477 8C12.5477 8.03222 12.5474 8.06433 12.5467 8.09634C12.5316 8.81076 12.8398 9.61244 13.5773 10.0345C13.7946 10.1588 13.8689 10.4363 13.7429 10.6526L13.195 11.593C13.0654 11.8155 12.7806 11.8919 12.5571 11.764C11.8206 11.3426 10.9744 11.4772 10.3622 11.8463C10.3038 11.8815 10.2445 11.9154 10.1845 11.948C9.55688 12.2889 9.01603 12.9537 9.01603 13.8014C9.01603 14.0492 8.81519 14.25 8.56745 14.25H7.43293C7.18518 14.25 6.98434 14.0492 6.98434 13.8014C6.98434 12.9537 6.44349 12.2889 5.81591 11.948C5.75584 11.9154 5.6966 11.8815 5.63821 11.8463C5.02592 11.4772 4.17976 11.3426 3.4433 11.764C3.21978 11.8918 2.93496 11.8155 2.80533 11.593L2.25743 10.6525C2.13143 10.4363 2.20579 10.1588 2.42304 10.0344C3.1606 9.61243 3.46879 8.81075 3.45367 8.09634C3.453 8.06432 3.45266 8.03221 3.45266 8C3.45266 7.9678 3.453 7.9357 3.45367 7.90369C3.46878 7.18927 3.1606 6.38758 2.42303 5.96557C2.20576 5.84125 2.1314 5.56372 2.25741 5.34743L2.80529 4.40699C2.93492 4.18447 3.21975 4.10816 3.44327 4.23605C4.17974 4.65743 5.02591 4.52283 5.6382 4.15372C5.69659 4.11852 5.75584 4.08459 5.81591 4.05197C6.44349 3.71113 6.98434 3.04631 6.98434 2.19858ZM6.75019 8C6.75019 7.30964 7.30983 6.75 8.00019 6.75C8.69055 6.75 9.25019 7.30964 9.25019 8C9.25019 8.69036 8.69055 9.25 8.00019 9.25C7.30983 9.25 6.75019 8.69036 6.75019 8ZM8.00019 5.25C6.48141 5.25 5.25019 6.48122 5.25019 8C5.25019 9.51878 6.48141 10.75 8.00019 10.75C9.51897 10.75 10.7502 9.51878 10.7502 8C10.7502 6.48122 9.51897 5.25 8.00019 5.25Z" fill="currentColor"/>
</svg>
