<svg width="24" height="24" viewBox="0 0 24 24" fill="none" xmlns="http://www.w3.org/2000/svg">
<path fill-rule="evenodd" clip-rule="evenodd" d="M13.2836 2.08118C13.6923 2.25674 13.9359 2.6811 13.8814 3.12252L13.1311 9.2H20C20.3869 9.2 20.7391 9.4232 20.9043 9.77308C21.0695 10.123 21.018 10.5367 20.7721 10.8355L11.8832 21.6355C11.6006 21.9789 11.1251 22.0944 10.7164 21.9188C10.3078 21.7433 10.0642 21.3189 10.1187 20.8775L10.869 14.8H4.00001C3.6131 14.8 3.2609 14.5768 3.09572 14.2269C2.93054 13.877 2.98202 13.4633 3.2279 13.1645L12.1168 2.36451C12.3994 2.0211 12.8749 1.90563 13.2836 2.08118ZM6.1182 12.8H12C12.2866 12.8 12.5594 12.9229 12.7492 13.1376C12.939 13.3523 13.0276 13.6381 12.9925 13.9225L12.5251 17.7084L17.8818 11.2H12C11.7134 11.2 11.4406 11.0771 11.2508 10.8624C11.061 10.6477 10.9724 10.3619 11.0075 10.0775L11.4749 6.29156L6.1182 12.8Z" fill="currentColor"/>
</svg>
